<svg xmlns="http://www.w3.org/2000/svg" xmlns:xlink="http://www.w3.org/1999/xlink" contentStyleType="text/css" data-diagram-type="SEQUENCE" height="1097px" preserveAspectRatio="none" style="width:884px;height:1097px;background:#FFFFFF;" version="1.1" viewBox="0 0 884 1097" width="884px" zoomAndPan="magnify"><title>Projet IND8123</title><defs/><g><text fill="#000000" font-family="sans-serif" font-size="25" font-weight="bold" lengthAdjust="spacing" textLength="197.3022" x="344.9885" y="39.1699">Projet IND8123</text><g><title>YFinance API</title><rect fill="#778899" height="29.3105" style="stroke:#181818;stroke-width:1;" width="10" x="64.3135" y="287.4844"/></g><g><title>Initialiser</title><rect fill="#778899" height="207.8633" style="stroke:#181818;stroke-width:1;" width="10" x="205.3169" y="181.5527"/></g><g><title>Simulator</title><rect fill="#778899" height="286.7949" style="stroke:#181818;stroke-width:1;" width="10" x="374.7705" y="375.416"/></g><g><title>Local data</title><rect fill="#FFFFFF" height="275.7949" style="stroke:#181818;stroke-width:1;" width="10" x="544.4146" y="648.2109"/></g><g><title>Pricer</title><rect fill="#778899" height="203.8633" style="stroke:#181818;stroke-width:1;" width="10" x="682.1953" y="769.4531"/></g><rect fill="none" height="262.4844" style="stroke:#000000;stroke-width:1.5;" width="848.2793" x="10" y="134.9316"/><rect fill="none" height="265.7949" style="stroke:#000000;stroke-width:1.5;" width="550.0508" x="318.2285" y="411.416"/><rect fill="#ADD8E6" height="162.8633" style="stroke:#000000;stroke-width:1.5;" width="530.0508" x="328.2285" y="507.3477"/><rect fill="none" height="311.1055" style="stroke:#000000;stroke-width:1.5;" width="398.5361" x="479.7432" y="691.2109"/><rect fill="#ADD8E6" height="279.7949" style="stroke:#000000;stroke-width:1.5;" width="378.5361" x="489.7432" y="715.5215"/><rect fill="#90EE90" height="189.8633" style="stroke:#000000;stroke-width:1.5;" width="358.5361" x="499.7432" y="798.4531"/><g><title>YFinance API</title><rect fill="#000000" fill-opacity="0.00000" height="901.3848" width="8" x="65.3135" y="117.9316"/><line style="stroke:#181818;stroke-width:0.5;stroke-dasharray:5.0,5.0;" x1="69" x2="69" y1="117.9316" y2="1019.3164"/></g><g><title>Initialiser</title><rect fill="#000000" fill-opacity="0.00000" height="901.3848" width="8" x="206.3169" y="117.9316"/><line style="stroke:#181818;stroke-width:0.5;stroke-dasharray:5.0,5.0;" x1="210.0996" x2="210.0996" y1="117.9316" y2="1019.3164"/></g><g><title>Simulator</title><rect fill="#000000" fill-opacity="0.00000" height="901.3848" width="8" x="375.7705" y="117.9316"/><line style="stroke:#181818;stroke-width:0.5;stroke-dasharray:5.0,5.0;" x1="379.2285" x2="379.2285" y1="117.9316" y2="1019.3164"/></g><g><title>Local data</title><rect fill="#000000" fill-opacity="0.00000" height="901.3848" width="8" x="545.4146" y="117.9316"/><line style="stroke:#181818;stroke-width:0.5;stroke-dasharray:5.0,5.0;" x1="548.7432" x2="548.7432" y1="117.9316" y2="1019.3164"/></g><g><title>Pricer</title><rect fill="#000000" fill-opacity="0.00000" height="901.3848" width="8" x="683.1953" y="117.9316"/><line style="stroke:#181818;stroke-width:0.5;stroke-dasharray:5.0,5.0;" x1="686.4346" x2="686.4346" y1="117.9316" y2="1019.3164"/></g><g><title>Logs</title><rect fill="#000000" fill-opacity="0.00000" height="901.3848" width="8" x="818.1621" y="117.9316"/><line style="stroke:#181818;stroke-width:0.5;stroke-dasharray:5.0,5.0;" x1="822.0449" x2="822.0449" y1="117.9316" y2="1019.3164"/></g><g class="participant participant-head" data-participant="YFinance API"><text fill="#000000" font-family="sans-serif" font-size="14" font-weight="bold" lengthAdjust="spacing" textLength="92.627" x="20" y="114.9785">YFinance API</text><path d="M51.3135,65.4434 C51.3135,55.4434 69.3135,55.4434 69.3135,55.4434 C69.3135,55.4434 87.3135,55.4434 87.3135,65.4434 L87.3135,91.4434 C87.3135,101.4434 69.3135,101.4434 69.3135,101.4434 C69.3135,101.4434 51.3135,101.4434 51.3135,91.4434 L51.3135,65.4434" fill="#720E9E" style="stroke:#181818;stroke-width:1.5;"/><path d="M51.3135,65.4434 C51.3135,75.4434 69.3135,75.4434 69.3135,75.4434 C69.3135,75.4434 87.3135,75.4434 87.3135,65.4434" fill="none" style="stroke:#181818;stroke-width:1.5;"/></g><g class="participant participant-tail" data-participant="YFinance API"><text fill="#000000" font-family="sans-serif" font-size="14" font-weight="bold" lengthAdjust="spacing" textLength="92.627" x="20" y="1031.8516">YFinance API</text><path d="M51.3135,1044.8047 C51.3135,1034.8047 69.3135,1034.8047 69.3135,1034.8047 C69.3135,1034.8047 87.3135,1034.8047 87.3135,1044.8047 L87.3135,1070.8047 C87.3135,1080.8047 69.3135,1080.8047 69.3135,1080.8047 C69.3135,1080.8047 51.3135,1080.8047 51.3135,1070.8047 L51.3135,1044.8047" fill="#720E9E" style="stroke:#181818;stroke-width:1.5;"/><path d="M51.3135,1044.8047 C51.3135,1054.8047 69.3135,1054.8047 69.3135,1054.8047 C69.3135,1054.8047 87.3135,1054.8047 87.3135,1044.8047" fill="none" style="stroke:#181818;stroke-width:1.5;"/></g><g class="participant participant-head" data-participant="Initialiser"><rect fill="#FFFFFF" height="30.4883" rx="2.5" ry="2.5" style="stroke:#181818;stroke-width:0.5;" width="82.4346" x="169.0996" y="86.4434"/><text fill="#000000" font-family="sans-serif" font-size="14" font-weight="bold" lengthAdjust="spacing" textLength="68.4346" x="176.0996" y="106.9785">Initialiser</text></g><g class="participant participant-tail" data-participant="Initialiser"><rect fill="#FFFFFF" height="30.4883" rx="2.5" ry="2.5" style="stroke:#181818;stroke-width:0.5;" width="82.4346" x="169.0996" y="1018.3164"/><text fill="#000000" font-family="sans-serif" font-size="14" font-weight="bold" lengthAdjust="spacing" textLength="68.4346" x="176.0996" y="1038.8516">Initialiser</text></g><g class="participant participant-head" data-participant="Simulator"><rect fill="#FFFFFF" height="30.4883" rx="2.5" ry="2.5" style="stroke:#181818;stroke-width:0.5;" width="83.084" x="338.2285" y="86.4434"/><text fill="#000000" font-family="sans-serif" font-size="14" font-weight="bold" lengthAdjust="spacing" textLength="69.084" x="345.2285" y="106.9785">Simulator</text></g><g class="participant participant-tail" data-participant="Simulator"><rect fill="#FFFFFF" height="30.4883" rx="2.5" ry="2.5" style="stroke:#181818;stroke-width:0.5;" width="83.084" x="338.2285" y="1018.3164"/><text fill="#000000" font-family="sans-serif" font-size="14" font-weight="bold" lengthAdjust="spacing" textLength="69.084" x="345.2285" y="1038.8516">Simulator</text></g><g class="participant participant-head" data-participant="Local data"><text fill="#000000" font-family="sans-serif" font-size="14" font-weight="bold" lengthAdjust="spacing" textLength="73.3428" x="509.7432" y="114.9785">Local data</text><path d="M531.4146,65.4434 C531.4146,55.4434 549.4146,55.4434 549.4146,55.4434 C549.4146,55.4434 567.4146,55.4434 567.4146,65.4434 L567.4146,91.4434 C567.4146,101.4434 549.4146,101.4434 549.4146,101.4434 C549.4146,101.4434 531.4146,101.4434 531.4146,91.4434 L531.4146,65.4434" fill="#4682B4" style="stroke:#181818;stroke-width:1.5;"/><path d="M531.4146,65.4434 C531.4146,75.4434 549.4146,75.4434 549.4146,75.4434 C549.4146,75.4434 567.4146,75.4434 567.4146,65.4434" fill="none" style="stroke:#181818;stroke-width:1.5;"/></g><g class="participant participant-tail" data-participant="Local data"><text fill="#000000" font-family="sans-serif" font-size="14" font-weight="bold" lengthAdjust="spacing" textLength="73.3428" x="509.7432" y="1031.8516">Local data</text><path d="M531.4146,1044.8047 C531.4146,1034.8047 549.4146,1034.8047 549.4146,1034.8047 C549.4146,1034.8047 567.4146,1034.8047 567.4146,1044.8047 L567.4146,1070.8047 C567.4146,1080.8047 549.4146,1080.8047 549.4146,1080.8047 C549.4146,1080.8047 531.4146,1080.8047 531.4146,1070.8047 L531.4146,1044.8047" fill="#4682B4" style="stroke:#181818;stroke-width:1.5;"/><path d="M531.4146,1044.8047 C531.4146,1054.8047 549.4146,1054.8047 549.4146,1054.8047 C549.4146,1054.8047 567.4146,1054.8047 567.4146,1044.8047" fill="none" style="stroke:#181818;stroke-width:1.5;"/></g><g class="participant participant-head" data-participant="Pricer"><rect fill="#FFFFFF" height="30.4883" rx="2.5" ry="2.5" style="stroke:#181818;stroke-width:0.5;" width="55.5215" x="659.4346" y="86.4434"/><text fill="#000000" font-family="sans-serif" font-size="14" font-weight="bold" lengthAdjust="spacing" textLength="41.5215" x="666.4346" y="106.9785">Pricer</text></g><g class="participant participant-tail" data-participant="Pricer"><rect fill="#FFFFFF" height="30.4883" rx="2.5" ry="2.5" style="stroke:#181818;stroke-width:0.5;" width="55.5215" x="659.4346" y="1018.3164"/><text fill="#000000" font-family="sans-serif" font-size="14" font-weight="bold" lengthAdjust="spacing" textLength="41.5215" x="666.4346" y="1038.8516">Pricer</text></g><g class="participant participant-head" data-participant="Logs"><rect fill="#DAA520" height="30.4883" style="stroke:#181818;stroke-width:0.5;" width="48.2344" x="800.0449" y="82.4434"/><rect fill="#DAA520" height="30.4883" style="stroke:#181818;stroke-width:0.5;" width="48.2344" x="796.0449" y="86.4434"/><text fill="#000000" font-family="sans-serif" font-size="14" font-weight="bold" lengthAdjust="spacing" textLength="34.2344" x="803.0449" y="106.9785">Logs</text></g><g class="participant participant-tail" data-participant="Logs"><rect fill="#DAA520" height="30.4883" style="stroke:#181818;stroke-width:0.5;" width="48.2344" x="800.0449" y="1018.3164"/><rect fill="#DAA520" height="30.4883" style="stroke:#181818;stroke-width:0.5;" width="48.2344" x="796.0449" y="1022.3164"/><text fill="#000000" font-family="sans-serif" font-size="14" font-weight="bold" lengthAdjust="spacing" textLength="34.2344" x="803.0449" y="1042.8516">Logs</text></g><g><title>YFinance API</title><rect fill="#778899" height="29.3105" style="stroke:#181818;stroke-width:1;" width="10" x="64.3135" y="287.4844"/></g><g><title>Initialiser</title><rect fill="#778899" height="207.8633" style="stroke:#181818;stroke-width:1;" width="10" x="205.3169" y="181.5527"/></g><g><title>Simulator</title><rect fill="#778899" height="286.7949" style="stroke:#181818;stroke-width:1;" width="10" x="374.7705" y="375.416"/></g><g><title>Local data</title><rect fill="#FFFFFF" height="275.7949" style="stroke:#181818;stroke-width:1;" width="10" x="544.4146" y="648.2109"/></g><g><title>Pricer</title><rect fill="#778899" height="203.8633" style="stroke:#181818;stroke-width:1;" width="10" x="682.1953" y="769.4531"/></g><path d="M10,134.9316 L138.9985,134.9316 L138.9985,142.2422 L128.9985,152.2422 L10,152.2422 L10,134.9316" fill="#EEEEEE" style="stroke:#000000;stroke-width:1.5;"/><rect fill="none" height="262.4844" style="stroke:#000000;stroke-width:1.5;" width="848.2793" x="10" y="134.9316"/><text fill="#000000" font-family="sans-serif" font-size="13" font-weight="bold" lengthAdjust="spacing" textLength="83.9985" x="25" y="148.5">Initialisation</text><g class="message" data-participant-1="Initialiser" data-participant-2="Initialiser"><line style="stroke:#181818;stroke-width:1;" x1="210.3169" x2="257.3169" y1="168.5527" y2="168.5527"/><line style="stroke:#181818;stroke-width:1;" x1="257.3169" x2="257.3169" y1="168.5527" y2="181.5527"/><line style="stroke:#181818;stroke-width:1;" x1="216.3169" x2="257.3169" y1="181.5527" y2="181.5527"/><polygon fill="#181818" points="226.3169,177.5527,216.3169,181.5527,226.3169,185.5527,222.3169,181.5527" style="stroke:#181818;stroke-width:1;"/><text fill="#0000FF" font-family="sans-serif" font-size="13" font-weight="bold" lengthAdjust="spacing" textLength="8.5757" x="222.3169" y="163.8105">1</text><text fill="#000000" font-family="sans-serif" font-size="13" lengthAdjust="spacing" textLength="29.2246" x="234.8926" y="163.8105">Start</text></g><g class="message" data-participant-1="Initialiser" data-participant-2="Initialiser"><line style="stroke:#181818;stroke-width:1;" x1="215.3169" x2="257.3169" y1="231.1738" y2="231.1738"/><line style="stroke:#181818;stroke-width:1;" x1="257.3169" x2="257.3169" y1="231.1738" y2="244.1738"/><line style="stroke:#181818;stroke-width:1;" x1="216.3169" x2="257.3169" y1="244.1738" y2="244.1738"/><polygon fill="#181818" points="226.3169,240.1738,216.3169,244.1738,226.3169,248.1738,222.3169,244.1738" style="stroke:#181818;stroke-width:1;"/><text fill="#0000FF" font-family="sans-serif" font-size="13" font-weight="bold" lengthAdjust="spacing" textLength="8.5757" x="222.3169" y="218.7764">2</text><text fill="#000000" font-family="sans-serif" font-size="13" lengthAdjust="spacing" textLength="76.7622" x="234.8926" y="211.1211">Ask user for</text><text fill="#000000" font-family="sans-serif" font-size="13" lengthAdjust="spacing" textLength="122.8779" x="234.8926" y="226.4316">stock ticker symbol</text></g><g class="message" data-participant-1="Initialiser" data-participant-2="Logs"><polygon fill="#181818" points="810.1621,254.1738,820.1621,258.1738,810.1621,262.1738,814.1621,258.1738" style="stroke:#181818;stroke-width:1;"/><line style="stroke:#181818;stroke-width:1;stroke-dasharray:2.0,2.0;" x1="215.3169" x2="816.1621" y1="258.1738" y2="258.1738"/></g><g class="message" data-participant-1="Initialiser" data-participant-2="YFinance API"><polygon fill="#181818" points="85.3135,283.4844,75.3135,287.4844,85.3135,291.4844,81.3135,287.4844" style="stroke:#181818;stroke-width:1;"/><line style="stroke:#181818;stroke-width:1;" x1="79.3135" x2="204.3169" y1="287.4844" y2="287.4844"/><text fill="#0000FF" font-family="sans-serif" font-size="13" font-weight="bold" lengthAdjust="spacing" textLength="8.5757" x="91.3135" y="282.7422">3</text><text fill="#000000" font-family="sans-serif" font-size="13" lengthAdjust="spacing" textLength="82.1514" x="103.8892" y="282.7422">Send request</text></g><g class="message" data-participant-1="YFinance API" data-participant-2="Initialiser"><polygon fill="#181818" points="193.3169,312.7949,203.3169,316.7949,193.3169,320.7949,197.3169,316.7949" style="stroke:#181818;stroke-width:1;"/><line style="stroke:#181818;stroke-width:1;" x1="69.3135" x2="199.3169" y1="316.7949" y2="316.7949"/><text fill="#0000FF" font-family="sans-serif" font-size="13" font-weight="bold" lengthAdjust="spacing" textLength="8.5757" x="76.3135" y="312.0527">4</text><text fill="#000000" font-family="sans-serif" font-size="13" lengthAdjust="spacing" textLength="94.4277" x="88.8892" y="312.0527">Download data</text></g><g class="message" data-participant-1="Initialiser" data-participant-2="Logs"><polygon fill="#181818" points="810.1621,326.7949,820.1621,330.7949,810.1621,334.7949,814.1621,330.7949" style="stroke:#181818;stroke-width:1;"/><line style="stroke:#181818;stroke-width:1;stroke-dasharray:2.0,2.0;" x1="215.3169" x2="816.1621" y1="330.7949" y2="330.7949"/></g><g class="message" data-participant-1="Initialiser" data-participant-2="Simulator"><polygon fill="#181818" points="362.7705,371.416,372.7705,375.416,362.7705,379.416,366.7705,375.416" style="stroke:#181818;stroke-width:1;"/><line style="stroke:#181818;stroke-width:1;" x1="215.3169" x2="368.7705" y1="375.416" y2="375.416"/><text fill="#0000FF" font-family="sans-serif" font-size="13" font-weight="bold" lengthAdjust="spacing" textLength="8.5757" x="222.3169" y="363.0186">5</text><text fill="#000000" font-family="sans-serif" font-size="13" lengthAdjust="spacing" textLength="62.0103" x="234.8926" y="355.3633">Send data</text><text fill="#000000" font-family="sans-serif" font-size="13" lengthAdjust="spacing" textLength="88.3975" x="234.8926" y="370.6738">for simulation</text></g><g class="message" data-participant-1="Initialiser" data-participant-2="Logs"><polygon fill="#181818" points="810.1621,385.416,820.1621,389.416,810.1621,393.416,814.1621,389.416" style="stroke:#181818;stroke-width:1;"/><line style="stroke:#181818;stroke-width:1;stroke-dasharray:2.0,2.0;" x1="210.3169" x2="816.1621" y1="389.416" y2="389.416"/></g><path d="M318.2285,411.416 L434.2334,411.416 L434.2334,418.7266 L424.2334,428.7266 L318.2285,428.7266 L318.2285,411.416" fill="#EEEEEE" style="stroke:#000000;stroke-width:1.5;"/><rect fill="none" height="265.7949" style="stroke:#000000;stroke-width:1.5;" width="550.0508" x="318.2285" y="411.416"/><text fill="#000000" font-family="sans-serif" font-size="13" font-weight="bold" lengthAdjust="spacing" textLength="71.0049" x="333.2285" y="424.9844">Simulation</text><g class="message" data-participant-1="Simulator" data-participant-2="Simulator"><line style="stroke:#181818;stroke-width:1;" x1="384.7705" x2="426.7705" y1="465.3477" y2="465.3477"/><line style="stroke:#181818;stroke-width:1;" x1="426.7705" x2="426.7705" y1="465.3477" y2="478.3477"/><line style="stroke:#181818;stroke-width:1;" x1="385.7705" x2="426.7705" y1="478.3477" y2="478.3477"/><polygon fill="#181818" points="395.7705,474.3477,385.7705,478.3477,395.7705,482.3477,391.7705,478.3477" style="stroke:#181818;stroke-width:1;"/><text fill="#0000FF" font-family="sans-serif" font-size="13" font-weight="bold" lengthAdjust="spacing" textLength="8.5757" x="391.7705" y="452.9502">6</text><text fill="#000000" font-family="sans-serif" font-size="13" lengthAdjust="spacing" textLength="123.0684" x="404.3462" y="445.2949">Initialise simulation</text><text fill="#000000" font-family="sans-serif" font-size="13" lengthAdjust="spacing" textLength="71.2905" x="404.3462" y="460.6055">parameters</text></g><g class="message" data-participant-1="Simulator" data-participant-2="Logs"><polygon fill="#181818" points="810.1621,488.3477,820.1621,492.3477,810.1621,496.3477,814.1621,492.3477" style="stroke:#181818;stroke-width:1;"/><line style="stroke:#181818;stroke-width:1;stroke-dasharray:2.0,2.0;" x1="384.7705" x2="816.1621" y1="492.3477" y2="492.3477"/></g><path d="M328.2285,507.3477 L402.6753,507.3477 L402.6753,514.6582 L392.6753,524.6582 L328.2285,524.6582 L328.2285,507.3477" fill="#EEEEEE" style="stroke:#000000;stroke-width:1.5;"/><rect fill="none" height="162.8633" style="stroke:#000000;stroke-width:1.5;" width="530.0508" x="328.2285" y="507.3477"/><text fill="#000000" font-family="sans-serif" font-size="13" font-weight="bold" lengthAdjust="spacing" textLength="29.4468" x="343.2285" y="520.916">loop</text><text fill="#000000" font-family="sans-serif" font-size="11" font-weight="bold" lengthAdjust="spacing" textLength="128.2134" x="417.6753" y="519.9824">[Simulation methods`]</text><g class="message" data-participant-1="Simulator" data-participant-2="Simulator"><line style="stroke:#181818;stroke-width:1;" x1="384.7705" x2="426.7705" y1="576.5898" y2="576.5898"/><line style="stroke:#181818;stroke-width:1;" x1="426.7705" x2="426.7705" y1="576.5898" y2="589.5898"/><line style="stroke:#181818;stroke-width:1;" x1="385.7705" x2="426.7705" y1="589.5898" y2="589.5898"/><polygon fill="#181818" points="395.7705,585.5898,385.7705,589.5898,395.7705,593.5898,391.7705,589.5898" style="stroke:#181818;stroke-width:1;"/><text fill="#0000FF" font-family="sans-serif" font-size="13" font-weight="bold" lengthAdjust="spacing" textLength="8.5757" x="391.7705" y="556.5371">7</text><text fill="#000000" font-family="sans-serif" font-size="13" lengthAdjust="spacing" textLength="108.583" x="404.3462" y="541.2266">Run Monte-Carlo</text><text fill="#000000" font-family="sans-serif" font-size="13" lengthAdjust="spacing" textLength="111.5664" x="404.3462" y="556.5371">simulations using</text><text fill="#000000" font-family="sans-serif" font-size="13" lengthAdjust="spacing" textLength="98.1284" x="404.3462" y="571.8477">current method</text></g><g class="message" data-participant-1="Simulator" data-participant-2="Logs"><polygon fill="#181818" points="810.1621,599.5898,820.1621,603.5898,810.1621,607.5898,814.1621,603.5898" style="stroke:#181818;stroke-width:1;"/><line style="stroke:#181818;stroke-width:1;stroke-dasharray:2.0,2.0;" x1="384.7705" x2="816.1621" y1="603.5898" y2="603.5898"/></g><g class="message" data-participant-1="Simulator" data-participant-2="Local data"><polygon fill="#181818" points="532.4146,644.2109,542.4146,648.2109,532.4146,652.2109,536.4146,648.2109" style="stroke:#181818;stroke-width:1;"/><line style="stroke:#181818;stroke-width:1;" x1="384.7705" x2="538.4146" y1="648.2109" y2="648.2109"/><text fill="#0000FF" font-family="sans-serif" font-size="13" font-weight="bold" lengthAdjust="spacing" textLength="8.5757" x="391.7705" y="635.8135">8</text><text fill="#000000" font-family="sans-serif" font-size="13" lengthAdjust="spacing" textLength="98.3379" x="404.3462" y="628.1582">Store simulated</text><text fill="#000000" font-family="sans-serif" font-size="13" lengthAdjust="spacing" textLength="71.0112" x="404.3462" y="643.4688">trajectories</text></g><g class="message" data-participant-1="Simulator" data-participant-2="Logs"><polygon fill="#181818" points="810.1621,658.2109,820.1621,662.2109,810.1621,666.2109,814.1621,662.2109" style="stroke:#181818;stroke-width:1;"/><line style="stroke:#181818;stroke-width:1;stroke-dasharray:2.0,2.0;" x1="379.7705" x2="816.1621" y1="662.2109" y2="662.2109"/></g><path d="M479.7432,691.2109 L571.1128,691.2109 L571.1128,698.5215 L561.1128,708.5215 L479.7432,708.5215 L479.7432,691.2109" fill="#EEEEEE" style="stroke:#000000;stroke-width:1.5;"/><rect fill="none" height="311.1055" style="stroke:#000000;stroke-width:1.5;" width="398.5361" x="479.7432" y="691.2109"/><text fill="#000000" font-family="sans-serif" font-size="13" font-weight="bold" lengthAdjust="spacing" textLength="46.3696" x="494.7432" y="704.7793">Pricing</text><path d="M489.7432,715.5215 L564.1899,715.5215 L564.1899,722.832 L554.1899,732.832 L489.7432,732.832 L489.7432,715.5215" fill="#EEEEEE" style="stroke:#000000;stroke-width:1.5;"/><rect fill="none" height="279.7949" style="stroke:#000000;stroke-width:1.5;" width="378.5361" x="489.7432" y="715.5215"/><text fill="#000000" font-family="sans-serif" font-size="13" font-weight="bold" lengthAdjust="spacing" textLength="29.4468" x="504.7432" y="729.0898">loop</text><text fill="#000000" font-family="sans-serif" font-size="11" font-weight="bold" lengthAdjust="spacing" textLength="121.188" x="579.1899" y="728.1563">[Simulation methods]</text><g class="message" data-participant-1="Local data" data-participant-2="Pricer"><polygon fill="#181818" points="670.1953,765.4531,680.1953,769.4531,670.1953,773.4531,674.1953,769.4531" style="stroke:#181818;stroke-width:1;"/><line style="stroke:#181818;stroke-width:1;" x1="554.4146" x2="676.1953" y1="769.4531" y2="769.4531"/><text fill="#0000FF" font-family="sans-serif" font-size="13" font-weight="bold" lengthAdjust="spacing" textLength="8.5757" x="561.4146" y="757.0557">9</text><text fill="#000000" font-family="sans-serif" font-size="13" lengthAdjust="spacing" textLength="96.2051" x="573.9902" y="749.4004">Load simulated</text><text fill="#000000" font-family="sans-serif" font-size="13" lengthAdjust="spacing" textLength="71.0112" x="573.9902" y="764.7109">trajectories</text></g><g class="message" data-participant-1="Pricer" data-participant-2="Logs"><polygon fill="#181818" points="810.1621,779.4531,820.1621,783.4531,810.1621,787.4531,814.1621,783.4531" style="stroke:#181818;stroke-width:1;"/><line style="stroke:#181818;stroke-width:1;stroke-dasharray:2.0,2.0;" x1="692.1953" x2="816.1621" y1="783.4531" y2="783.4531"/></g><path d="M499.7432,798.4531 L574.1899,798.4531 L574.1899,805.7637 L564.1899,815.7637 L499.7432,815.7637 L499.7432,798.4531" fill="#EEEEEE" style="stroke:#000000;stroke-width:1.5;"/><rect fill="none" height="189.8633" style="stroke:#000000;stroke-width:1.5;" width="358.5361" x="499.7432" y="798.4531"/><text fill="#000000" font-family="sans-serif" font-size="13" font-weight="bold" lengthAdjust="spacing" textLength="29.4468" x="514.7432" y="812.0215">loop</text><text fill="#000000" font-family="sans-serif" font-size="11" font-weight="bold" lengthAdjust="spacing" textLength="81.2324" x="589.1899" y="811.0879">[Option types]</text><g class="message" data-participant-1="Pricer" data-participant-2="Pricer"><line style="stroke:#181818;stroke-width:1;" x1="692.1953" x2="734.1953" y1="852.3848" y2="852.3848"/><line style="stroke:#181818;stroke-width:1;" x1="734.1953" x2="734.1953" y1="852.3848" y2="865.3848"/><line style="stroke:#181818;stroke-width:1;" x1="693.1953" x2="734.1953" y1="865.3848" y2="865.3848"/><polygon fill="#181818" points="703.1953,861.3848,693.1953,865.3848,703.1953,869.3848,699.1953,865.3848" style="stroke:#181818;stroke-width:1;"/><text fill="#0000FF" font-family="sans-serif" font-size="13" font-weight="bold" lengthAdjust="spacing" textLength="17.1514" x="699.1953" y="839.9873">10</text><text fill="#000000" font-family="sans-serif" font-size="13" lengthAdjust="spacing" textLength="79.8154" x="720.3467" y="832.332">Price current</text><text fill="#000000" font-family="sans-serif" font-size="13" lengthAdjust="spacing" textLength="72.0332" x="720.3467" y="847.6426">option type</text></g><g class="message" data-participant-1="Pricer" data-participant-2="Logs"><polygon fill="#181818" points="810.1621,875.3848,820.1621,879.3848,810.1621,883.3848,814.1621,879.3848" style="stroke:#181818;stroke-width:1;"/><line style="stroke:#181818;stroke-width:1;stroke-dasharray:2.0,2.0;" x1="692.1953" x2="816.1621" y1="879.3848" y2="879.3848"/></g><g class="message" data-participant-1="Pricer" data-participant-2="Local data"><polygon fill="#181818" points="560.4146,920.0059,550.4146,924.0059,560.4146,928.0059,556.4146,924.0059" style="stroke:#181818;stroke-width:1;"/><line style="stroke:#181818;stroke-width:1;" x1="554.4146" x2="681.1953" y1="924.0059" y2="924.0059"/><text fill="#0000FF" font-family="sans-serif" font-size="13" font-weight="bold" lengthAdjust="spacing" textLength="17.1514" x="566.4146" y="911.6084">11</text><text fill="#000000" font-family="sans-serif" font-size="13" lengthAdjust="spacing" textLength="77.3652" x="587.5659" y="903.9531">Store option</text><text fill="#000000" font-family="sans-serif" font-size="13" lengthAdjust="spacing" textLength="31.1606" x="587.5659" y="919.2637">price</text></g><g class="message" data-participant-1="Pricer" data-participant-2="Logs"><polygon fill="#181818" points="810.1621,934.0059,820.1621,938.0059,810.1621,942.0059,814.1621,938.0059" style="stroke:#181818;stroke-width:1;"/><line style="stroke:#181818;stroke-width:1;stroke-dasharray:2.0,2.0;" x1="692.1953" x2="816.1621" y1="938.0059" y2="938.0059"/></g><g class="message" data-participant-1="Pricer" data-participant-2="Pricer"><line style="stroke:#181818;stroke-width:1;" x1="692.1953" x2="734.1953" y1="972.3164" y2="972.3164"/><line style="stroke:#181818;stroke-width:1;" x1="734.1953" x2="734.1953" y1="972.3164" y2="985.3164"/><line style="stroke:#181818;stroke-width:1;" x1="687.1953" x2="734.1953" y1="985.3164" y2="985.3164"/><polygon fill="#181818" points="697.1953,981.3164,687.1953,985.3164,697.1953,989.3164,693.1953,985.3164" style="stroke:#181818;stroke-width:1;"/><text fill="#0000FF" font-family="sans-serif" font-size="13" font-weight="bold" lengthAdjust="spacing" textLength="17.1514" x="699.1953" y="967.5742">12</text><text fill="#000000" font-family="sans-serif" font-size="13" lengthAdjust="spacing" textLength="28.0313" x="720.3467" y="967.5742">Stop</text></g><!--SRC=[hLJ1Rjf04BtlLwpWq1EbfQhQejHI4f88AMrHNAcgv4CNUm8RrZlkxheL-VhEOcElQI0KzO00pyoRz-RD-CNIkSAEXyD22UtANBrCCHzQ-5c2Jc6GIR4m8cVChgGk1FtaCs6SJ6L1wTUeNUpM2lWSLHRaJ8GJSs5XRy8bAWMfawZjtfmBaQuM1akTKJOQ_cqf7GJnhzAfgeDy13vw-sIe1HQbGrtcSp2yTtPFCPvws8zpLK9qDezwZ3bVncS67y3nwUV9-zUZDunbjHZU-tujjQ2nyFFPjCVxxqQlhZvSiQ8T29zgwQHGqbANVaKu3CSoBvLms0HRx5jCXUB-Fo773a1T4B5EzSp8jCLDsn7oMrnOthyXcQ3lC6EC-S4LBHtXyrZ8RX25PCSyTjI92GBy9HnqXTpAnTB5H1nk3AmFmfpR5Izzu9v49jewJ5US5ApeaLtdv4He18MBBXpXUJ5XaW5Rvh3RjMi6yGUTKIhjhGrax5gsewGRtjKomTzQeSWshh0Czg3-9q7DRjHQVDD4-p7QAk8TR2W4cxIZwKGsWRoWue1guhXTixWbsF0QH86W5Z4GarJ72WwC_OjrYpE8zZ1MY4MjtfzAm88Jw18p-sCFdRjIyq_q1e31fJ0AQKsRKalRA_KYqMbf3D3HLL2dy0jwXzVjJmrDCmZ84ksCUA1JHYF11hiR59tIFx2koTwujd6kjiw_KqZl4SDa8Pz1LBsCnhHET23FQjc-kfxPrIhjACkf7ZJ_KcmekdL1tUhgXjhcczT69XhRt7zkl8L-oiWAbxRPvtGEvf21ntRSYebzKG1UFM_yz9y_]--></g></svg>