<svg xmlns="http://www.w3.org/2000/svg" xmlns:xlink="http://www.w3.org/1999/xlink" contentStyleType="text/css" data-diagram-type="SEQUENCE" height="1089px" preserveAspectRatio="none" style="width:898px;height:1089px;background:#FFFFFF;" version="1.1" viewBox="0 0 898 1089" width="898px" zoomAndPan="magnify"><title>Projet IND8123</title><defs/><g><text fill="#000000" font-family="sans-serif" font-size="25" font-weight="bold" lengthAdjust="spacing" textLength="197.3022" x="352.1365" y="39.1699">Projet IND8123</text><g><title>YFinance API</title><rect fill="#778899" height="29.3105" style="stroke:#181818;stroke-width:1;" width="10" x="64.3135" y="273.4844"/></g><g><title>Initialiser</title><rect fill="#778899" height="195.8633" style="stroke:#181818;stroke-width:1;" width="10" x="205.3169" y="181.5527"/></g><g><title>Simulator</title><rect fill="#778899" height="290.7949" style="stroke:#181818;stroke-width:1;" width="10" x="374.7705" y="347.416"/></g><g><title>Local data</title><rect fill="#FFFFFF" height="321.416" style="stroke:#181818;stroke-width:1;" width="10" x="544.4146" y="608.2109"/></g><g><title>Pricer</title><rect fill="#778899" height="219.4844" style="stroke:#181818;stroke-width:1;" width="10" x="682.1953" y="745.4531"/></g><rect fill="none" height="250.4844" style="stroke:#000000;stroke-width:1.5;" width="421.3125" x="10" y="134.9316"/><rect fill="none" height="253.7949" style="stroke:#000000;stroke-width:1.5;" width="290.8574" x="318.2285" y="399.416"/><rect fill="#ADD8E6" height="164.8633" style="stroke:#000000;stroke-width:1.5;" width="270.8574" x="328.2285" y="481.3477"/><rect fill="none" height="326.7266" style="stroke:#000000;stroke-width:1.5;" width="412.832" x="479.7432" y="667.2109"/><rect fill="#ADD8E6" height="295.416" style="stroke:#000000;stroke-width:1.5;" width="392.832" x="489.7432" y="691.5215"/><rect fill="#90EE90" height="219.4844" style="stroke:#000000;stroke-width:1.5;" width="372.832" x="499.7432" y="760.4531"/><g><title>YFinance API</title><rect fill="#000000" fill-opacity="0.00000" height="893.0059" width="8" x="65.3135" y="117.9316"/><line style="stroke:#181818;stroke-width:0.5;stroke-dasharray:5.0,5.0;" x1="69" x2="69" y1="117.9316" y2="1010.9375"/></g><g><title>Initialiser</title><rect fill="#000000" fill-opacity="0.00000" height="893.0059" width="8" x="206.3169" y="117.9316"/><line style="stroke:#181818;stroke-width:0.5;stroke-dasharray:5.0,5.0;" x1="210.0996" x2="210.0996" y1="117.9316" y2="1010.9375"/></g><g><title>Simulator</title><rect fill="#000000" fill-opacity="0.00000" height="893.0059" width="8" x="375.7705" y="117.9316"/><line style="stroke:#181818;stroke-width:0.5;stroke-dasharray:5.0,5.0;" x1="379.2285" x2="379.2285" y1="117.9316" y2="1010.9375"/></g><g><title>Local data</title><rect fill="#000000" fill-opacity="0.00000" height="893.0059" width="8" x="545.4146" y="117.9316"/><line style="stroke:#181818;stroke-width:0.5;stroke-dasharray:5.0,5.0;" x1="548.7432" x2="548.7432" y1="117.9316" y2="1010.9375"/></g><g><title>Pricer</title><rect fill="#000000" fill-opacity="0.00000" height="893.0059" width="8" x="683.1953" y="117.9316"/><line style="stroke:#181818;stroke-width:0.5;stroke-dasharray:5.0,5.0;" x1="686.4346" x2="686.4346" y1="117.9316" y2="1010.9375"/></g><g class="participant participant-head" data-participant="YFinance API"><text fill="#000000" font-family="sans-serif" font-size="14" font-weight="bold" lengthAdjust="spacing" textLength="92.627" x="20" y="114.9785">YFinance API</text><path d="M51.3135,65.4434 C51.3135,55.4434 69.3135,55.4434 69.3135,55.4434 C69.3135,55.4434 87.3135,55.4434 87.3135,65.4434 L87.3135,91.4434 C87.3135,101.4434 69.3135,101.4434 69.3135,101.4434 C69.3135,101.4434 51.3135,101.4434 51.3135,91.4434 L51.3135,65.4434" fill="#720E9E" style="stroke:#181818;stroke-width:1.5;"/><path d="M51.3135,65.4434 C51.3135,75.4434 69.3135,75.4434 69.3135,75.4434 C69.3135,75.4434 87.3135,75.4434 87.3135,65.4434" fill="none" style="stroke:#181818;stroke-width:1.5;"/></g><g class="participant participant-tail" data-participant="YFinance API"><text fill="#000000" font-family="sans-serif" font-size="14" font-weight="bold" lengthAdjust="spacing" textLength="92.627" x="20" y="1023.4727">YFinance API</text><path d="M51.3135,1036.4258 C51.3135,1026.4258 69.3135,1026.4258 69.3135,1026.4258 C69.3135,1026.4258 87.3135,1026.4258 87.3135,1036.4258 L87.3135,1062.4258 C87.3135,1072.4258 69.3135,1072.4258 69.3135,1072.4258 C69.3135,1072.4258 51.3135,1072.4258 51.3135,1062.4258 L51.3135,1036.4258" fill="#720E9E" style="stroke:#181818;stroke-width:1.5;"/><path d="M51.3135,1036.4258 C51.3135,1046.4258 69.3135,1046.4258 69.3135,1046.4258 C69.3135,1046.4258 87.3135,1046.4258 87.3135,1036.4258" fill="none" style="stroke:#181818;stroke-width:1.5;"/></g><g class="participant participant-head" data-participant="Initialiser"><rect fill="#FFFFFF" height="30.4883" rx="2.5" ry="2.5" style="stroke:#181818;stroke-width:0.5;" width="82.4346" x="169.0996" y="86.4434"/><text fill="#000000" font-family="sans-serif" font-size="14" font-weight="bold" lengthAdjust="spacing" textLength="68.4346" x="176.0996" y="106.9785">Initialiser</text></g><g class="participant participant-tail" data-participant="Initialiser"><rect fill="#FFFFFF" height="30.4883" rx="2.5" ry="2.5" style="stroke:#181818;stroke-width:0.5;" width="82.4346" x="169.0996" y="1009.9375"/><text fill="#000000" font-family="sans-serif" font-size="14" font-weight="bold" lengthAdjust="spacing" textLength="68.4346" x="176.0996" y="1030.4727">Initialiser</text></g><g class="participant participant-head" data-participant="Simulator"><rect fill="#FFFFFF" height="30.4883" rx="2.5" ry="2.5" style="stroke:#181818;stroke-width:0.5;" width="83.084" x="338.2285" y="86.4434"/><text fill="#000000" font-family="sans-serif" font-size="14" font-weight="bold" lengthAdjust="spacing" textLength="69.084" x="345.2285" y="106.9785">Simulator</text></g><g class="participant participant-tail" data-participant="Simulator"><rect fill="#FFFFFF" height="30.4883" rx="2.5" ry="2.5" style="stroke:#181818;stroke-width:0.5;" width="83.084" x="338.2285" y="1009.9375"/><text fill="#000000" font-family="sans-serif" font-size="14" font-weight="bold" lengthAdjust="spacing" textLength="69.084" x="345.2285" y="1030.4727">Simulator</text></g><g class="participant participant-head" data-participant="Local data"><text fill="#000000" font-family="sans-serif" font-size="14" font-weight="bold" lengthAdjust="spacing" textLength="73.3428" x="509.7432" y="114.9785">Local data</text><path d="M531.4146,65.4434 C531.4146,55.4434 549.4146,55.4434 549.4146,55.4434 C549.4146,55.4434 567.4146,55.4434 567.4146,65.4434 L567.4146,91.4434 C567.4146,101.4434 549.4146,101.4434 549.4146,101.4434 C549.4146,101.4434 531.4146,101.4434 531.4146,91.4434 L531.4146,65.4434" fill="#4682B4" style="stroke:#181818;stroke-width:1.5;"/><path d="M531.4146,65.4434 C531.4146,75.4434 549.4146,75.4434 549.4146,75.4434 C549.4146,75.4434 567.4146,75.4434 567.4146,65.4434" fill="none" style="stroke:#181818;stroke-width:1.5;"/></g><g class="participant participant-tail" data-participant="Local data"><text fill="#000000" font-family="sans-serif" font-size="14" font-weight="bold" lengthAdjust="spacing" textLength="73.3428" x="509.7432" y="1023.4727">Local data</text><path d="M531.4146,1036.4258 C531.4146,1026.4258 549.4146,1026.4258 549.4146,1026.4258 C549.4146,1026.4258 567.4146,1026.4258 567.4146,1036.4258 L567.4146,1062.4258 C567.4146,1072.4258 549.4146,1072.4258 549.4146,1072.4258 C549.4146,1072.4258 531.4146,1072.4258 531.4146,1062.4258 L531.4146,1036.4258" fill="#4682B4" style="stroke:#181818;stroke-width:1.5;"/><path d="M531.4146,1036.4258 C531.4146,1046.4258 549.4146,1046.4258 549.4146,1046.4258 C549.4146,1046.4258 567.4146,1046.4258 567.4146,1036.4258" fill="none" style="stroke:#181818;stroke-width:1.5;"/></g><g class="participant participant-head" data-participant="Pricer"><rect fill="#FFFFFF" height="30.4883" rx="2.5" ry="2.5" style="stroke:#181818;stroke-width:0.5;" width="55.5215" x="659.4346" y="86.4434"/><text fill="#000000" font-family="sans-serif" font-size="14" font-weight="bold" lengthAdjust="spacing" textLength="41.5215" x="666.4346" y="106.9785">Pricer</text></g><g class="participant participant-tail" data-participant="Pricer"><rect fill="#FFFFFF" height="30.4883" rx="2.5" ry="2.5" style="stroke:#181818;stroke-width:0.5;" width="55.5215" x="659.4346" y="1009.9375"/><text fill="#000000" font-family="sans-serif" font-size="14" font-weight="bold" lengthAdjust="spacing" textLength="41.5215" x="666.4346" y="1030.4727">Pricer</text></g><g><title>YFinance API</title><rect fill="#778899" height="29.3105" style="stroke:#181818;stroke-width:1;" width="10" x="64.3135" y="273.4844"/></g><g><title>Initialiser</title><rect fill="#778899" height="195.8633" style="stroke:#181818;stroke-width:1;" width="10" x="205.3169" y="181.5527"/></g><g><title>Simulator</title><rect fill="#778899" height="290.7949" style="stroke:#181818;stroke-width:1;" width="10" x="374.7705" y="347.416"/></g><g><title>Local data</title><rect fill="#FFFFFF" height="321.416" style="stroke:#181818;stroke-width:1;" width="10" x="544.4146" y="608.2109"/></g><g><title>Pricer</title><rect fill="#778899" height="219.4844" style="stroke:#181818;stroke-width:1;" width="10" x="682.1953" y="745.4531"/></g><path d="M10,134.9316 L138.9985,134.9316 L138.9985,142.2422 L128.9985,152.2422 L10,152.2422 L10,134.9316" fill="#EEEEEE" style="stroke:#000000;stroke-width:1.5;"/><rect fill="none" height="250.4844" style="stroke:#000000;stroke-width:1.5;" width="421.3125" x="10" y="134.9316"/><text fill="#000000" font-family="sans-serif" font-size="13" font-weight="bold" lengthAdjust="spacing" textLength="83.9985" x="25" y="148.5">Initialisation</text><g class="message" data-participant-1="Initialiser" data-participant-2="Initialiser"><line style="stroke:#181818;stroke-width:1;" x1="210.3169" x2="257.3169" y1="168.5527" y2="168.5527"/><line style="stroke:#181818;stroke-width:1;" x1="257.3169" x2="257.3169" y1="168.5527" y2="181.5527"/><line style="stroke:#181818;stroke-width:1;" x1="216.3169" x2="257.3169" y1="181.5527" y2="181.5527"/><polygon fill="#181818" points="226.3169,177.5527,216.3169,181.5527,226.3169,185.5527,222.3169,181.5527" style="stroke:#181818;stroke-width:1;"/><text fill="#0000FF" font-family="sans-serif" font-size="13" font-weight="bold" lengthAdjust="spacing" textLength="8.5757" x="222.3169" y="163.8105">1</text><text fill="#000000" font-family="sans-serif" font-size="13" lengthAdjust="spacing" textLength="29.2246" x="234.8926" y="163.8105">Start</text></g><g class="message" data-participant-1="Initialiser" data-participant-2="Initialiser"><line style="stroke:#181818;stroke-width:1;" x1="215.3169" x2="257.3169" y1="231.1738" y2="231.1738"/><line style="stroke:#181818;stroke-width:1;" x1="257.3169" x2="257.3169" y1="231.1738" y2="244.1738"/><line style="stroke:#181818;stroke-width:1;" x1="216.3169" x2="257.3169" y1="244.1738" y2="244.1738"/><polygon fill="#181818" points="226.3169,240.1738,216.3169,244.1738,226.3169,248.1738,222.3169,244.1738" style="stroke:#181818;stroke-width:1;"/><text fill="#0000FF" font-family="sans-serif" font-size="13" font-weight="bold" lengthAdjust="spacing" textLength="8.5757" x="222.3169" y="218.7764">2</text><text fill="#000000" font-family="sans-serif" font-size="13" lengthAdjust="spacing" textLength="76.7622" x="234.8926" y="211.1211">Ask user for</text><text fill="#000000" font-family="sans-serif" font-size="13" lengthAdjust="spacing" textLength="122.8779" x="234.8926" y="226.4316">stock ticker symbol</text></g><g class="message" data-participant-1="Initialiser" data-participant-2="YFinance API"><polygon fill="#181818" points="85.3135,269.4844,75.3135,273.4844,85.3135,277.4844,81.3135,273.4844" style="stroke:#181818;stroke-width:1;"/><line style="stroke:#181818;stroke-width:1;" x1="79.3135" x2="204.3169" y1="273.4844" y2="273.4844"/><text fill="#0000FF" font-family="sans-serif" font-size="13" font-weight="bold" lengthAdjust="spacing" textLength="8.5757" x="91.3135" y="268.7422">3</text><text fill="#000000" font-family="sans-serif" font-size="13" lengthAdjust="spacing" textLength="82.1514" x="103.8892" y="268.7422">Send request</text></g><g class="message" data-participant-1="YFinance API" data-participant-2="Initialiser"><polygon fill="#181818" points="193.3169,298.7949,203.3169,302.7949,193.3169,306.7949,197.3169,302.7949" style="stroke:#181818;stroke-width:1;"/><line style="stroke:#181818;stroke-width:1;" x1="69.3135" x2="199.3169" y1="302.7949" y2="302.7949"/><text fill="#0000FF" font-family="sans-serif" font-size="13" font-weight="bold" lengthAdjust="spacing" textLength="8.5757" x="76.3135" y="298.0527">4</text><text fill="#000000" font-family="sans-serif" font-size="13" lengthAdjust="spacing" textLength="94.4277" x="88.8892" y="298.0527">Download data</text></g><g class="message" data-participant-1="Initialiser" data-participant-2="Simulator"><polygon fill="#181818" points="362.7705,343.416,372.7705,347.416,362.7705,351.416,366.7705,347.416" style="stroke:#181818;stroke-width:1;"/><line style="stroke:#181818;stroke-width:1;" x1="215.3169" x2="368.7705" y1="347.416" y2="347.416"/><text fill="#0000FF" font-family="sans-serif" font-size="13" font-weight="bold" lengthAdjust="spacing" textLength="8.5757" x="222.3169" y="335.0186">5</text><text fill="#000000" font-family="sans-serif" font-size="13" lengthAdjust="spacing" textLength="62.0103" x="234.8926" y="327.3633">Send data</text><text fill="#000000" font-family="sans-serif" font-size="13" lengthAdjust="spacing" textLength="88.3975" x="234.8926" y="342.6738">for simulation</text></g><path d="M318.2285,399.416 L434.2334,399.416 L434.2334,406.7266 L424.2334,416.7266 L318.2285,416.7266 L318.2285,399.416" fill="#EEEEEE" style="stroke:#000000;stroke-width:1.5;"/><rect fill="none" height="253.7949" style="stroke:#000000;stroke-width:1.5;" width="290.8574" x="318.2285" y="399.416"/><text fill="#000000" font-family="sans-serif" font-size="13" font-weight="bold" lengthAdjust="spacing" textLength="71.0049" x="333.2285" y="412.9844">Simulation</text><g class="message" data-participant-1="Simulator" data-participant-2="Simulator"><line style="stroke:#181818;stroke-width:1;" x1="384.7705" x2="426.7705" y1="453.3477" y2="453.3477"/><line style="stroke:#181818;stroke-width:1;" x1="426.7705" x2="426.7705" y1="453.3477" y2="466.3477"/><line style="stroke:#181818;stroke-width:1;" x1="385.7705" x2="426.7705" y1="466.3477" y2="466.3477"/><polygon fill="#181818" points="395.7705,462.3477,385.7705,466.3477,395.7705,470.3477,391.7705,466.3477" style="stroke:#181818;stroke-width:1;"/><text fill="#0000FF" font-family="sans-serif" font-size="13" font-weight="bold" lengthAdjust="spacing" textLength="8.5757" x="391.7705" y="440.9502">6</text><text fill="#000000" font-family="sans-serif" font-size="13" lengthAdjust="spacing" textLength="123.0684" x="404.3462" y="433.2949">Initialise simulation</text><text fill="#000000" font-family="sans-serif" font-size="13" lengthAdjust="spacing" textLength="71.2905" x="404.3462" y="448.6055">parameters</text></g><path d="M328.2285,481.3477 L402.6753,481.3477 L402.6753,488.6582 L392.6753,498.6582 L328.2285,498.6582 L328.2285,481.3477" fill="#EEEEEE" style="stroke:#000000;stroke-width:1.5;"/><rect fill="none" height="164.8633" style="stroke:#000000;stroke-width:1.5;" width="270.8574" x="328.2285" y="481.3477"/><text fill="#000000" font-family="sans-serif" font-size="13" font-weight="bold" lengthAdjust="spacing" textLength="29.4468" x="343.2285" y="494.916">loop</text><text fill="#000000" font-family="sans-serif" font-size="11" font-weight="bold" lengthAdjust="spacing" textLength="121.188" x="417.6753" y="493.9824">[Simulation methods]</text><g class="message" data-participant-1="Simulator" data-participant-2="Simulator"><line style="stroke:#181818;stroke-width:1;" x1="384.7705" x2="426.7705" y1="550.5898" y2="550.5898"/><line style="stroke:#181818;stroke-width:1;" x1="426.7705" x2="426.7705" y1="550.5898" y2="563.5898"/><line style="stroke:#181818;stroke-width:1;" x1="385.7705" x2="426.7705" y1="563.5898" y2="563.5898"/><polygon fill="#181818" points="395.7705,559.5898,385.7705,563.5898,395.7705,567.5898,391.7705,563.5898" style="stroke:#181818;stroke-width:1;"/><text fill="#0000FF" font-family="sans-serif" font-size="13" font-weight="bold" lengthAdjust="spacing" textLength="8.5757" x="391.7705" y="530.5371">7</text><text fill="#000000" font-family="sans-serif" font-size="13" lengthAdjust="spacing" textLength="108.583" x="404.3462" y="515.2266">Run Monte-Carlo</text><text fill="#000000" font-family="sans-serif" font-size="13" lengthAdjust="spacing" textLength="111.5664" x="404.3462" y="530.5371">simulations using</text><text fill="#000000" font-family="sans-serif" font-size="13" lengthAdjust="spacing" textLength="98.1284" x="404.3462" y="545.8477">current method</text></g><g class="message" data-participant-1="Simulator" data-participant-2="Local data"><polygon fill="#181818" points="532.4146,604.2109,542.4146,608.2109,532.4146,612.2109,536.4146,608.2109" style="stroke:#181818;stroke-width:1;"/><line style="stroke:#181818;stroke-width:1;" x1="384.7705" x2="538.4146" y1="608.2109" y2="608.2109"/><text fill="#0000FF" font-family="sans-serif" font-size="13" font-weight="bold" lengthAdjust="spacing" textLength="8.5757" x="391.7705" y="595.8135">8</text><text fill="#000000" font-family="sans-serif" font-size="13" lengthAdjust="spacing" textLength="98.3379" x="404.3462" y="588.1582">Store simulated</text><text fill="#000000" font-family="sans-serif" font-size="13" lengthAdjust="spacing" textLength="71.0112" x="404.3462" y="603.4688">trajectories</text></g><path d="M479.7432,667.2109 L571.1128,667.2109 L571.1128,674.5215 L561.1128,684.5215 L479.7432,684.5215 L479.7432,667.2109" fill="#EEEEEE" style="stroke:#000000;stroke-width:1.5;"/><rect fill="none" height="326.7266" style="stroke:#000000;stroke-width:1.5;" width="412.832" x="479.7432" y="667.2109"/><text fill="#000000" font-family="sans-serif" font-size="13" font-weight="bold" lengthAdjust="spacing" textLength="46.3696" x="494.7432" y="680.7793">Pricing</text><path d="M489.7432,691.5215 L564.1899,691.5215 L564.1899,698.832 L554.1899,708.832 L489.7432,708.832 L489.7432,691.5215" fill="#EEEEEE" style="stroke:#000000;stroke-width:1.5;"/><rect fill="none" height="295.416" style="stroke:#000000;stroke-width:1.5;" width="392.832" x="489.7432" y="691.5215"/><text fill="#000000" font-family="sans-serif" font-size="13" font-weight="bold" lengthAdjust="spacing" textLength="29.4468" x="504.7432" y="705.0898">loop</text><text fill="#000000" font-family="sans-serif" font-size="11" font-weight="bold" lengthAdjust="spacing" textLength="121.188" x="579.1899" y="704.1563">[Simulation methods]</text><g class="message" data-participant-1="Local data" data-participant-2="Pricer"><polygon fill="#181818" points="670.1953,741.4531,680.1953,745.4531,670.1953,749.4531,674.1953,745.4531" style="stroke:#181818;stroke-width:1;"/><line style="stroke:#181818;stroke-width:1;" x1="554.4146" x2="676.1953" y1="745.4531" y2="745.4531"/><text fill="#0000FF" font-family="sans-serif" font-size="13" font-weight="bold" lengthAdjust="spacing" textLength="8.5757" x="561.4146" y="733.0557">9</text><text fill="#000000" font-family="sans-serif" font-size="13" lengthAdjust="spacing" textLength="96.2051" x="573.9902" y="725.4004">Load simulated</text><text fill="#000000" font-family="sans-serif" font-size="13" lengthAdjust="spacing" textLength="71.0112" x="573.9902" y="740.7109">trajectories</text></g><path d="M499.7432,760.4531 L574.1899,760.4531 L574.1899,767.7637 L564.1899,777.7637 L499.7432,777.7637 L499.7432,760.4531" fill="#EEEEEE" style="stroke:#000000;stroke-width:1.5;"/><rect fill="none" height="219.4844" style="stroke:#000000;stroke-width:1.5;" width="372.832" x="499.7432" y="760.4531"/><text fill="#000000" font-family="sans-serif" font-size="13" font-weight="bold" lengthAdjust="spacing" textLength="29.4468" x="514.7432" y="774.0215">loop</text><text fill="#000000" font-family="sans-serif" font-size="11" font-weight="bold" lengthAdjust="spacing" textLength="81.2324" x="589.1899" y="773.0879">[Option types]</text><g class="message" data-participant-1="Pricer" data-participant-2="Pricer"><line style="stroke:#181818;stroke-width:1;" x1="692.1953" x2="734.1953" y1="814.3848" y2="814.3848"/><line style="stroke:#181818;stroke-width:1;" x1="734.1953" x2="734.1953" y1="814.3848" y2="827.3848"/><line style="stroke:#181818;stroke-width:1;" x1="693.1953" x2="734.1953" y1="827.3848" y2="827.3848"/><polygon fill="#181818" points="703.1953,823.3848,693.1953,827.3848,703.1953,831.3848,699.1953,827.3848" style="stroke:#181818;stroke-width:1;"/><text fill="#0000FF" font-family="sans-serif" font-size="13" font-weight="bold" lengthAdjust="spacing" textLength="17.1514" x="699.1953" y="801.9873">10</text><text fill="#000000" font-family="sans-serif" font-size="13" lengthAdjust="spacing" textLength="79.8154" x="720.3467" y="794.332">Price current</text><text fill="#000000" font-family="sans-serif" font-size="13" lengthAdjust="spacing" textLength="72.0332" x="720.3467" y="809.6426">option type</text></g><g class="message" data-participant-1="Pricer" data-participant-2="Pricer"><line style="stroke:#181818;stroke-width:1;" x1="692.1953" x2="734.1953" y1="872.0059" y2="872.0059"/><line style="stroke:#181818;stroke-width:1;" x1="734.1953" x2="734.1953" y1="872.0059" y2="885.0059"/><line style="stroke:#181818;stroke-width:1;" x1="693.1953" x2="734.1953" y1="885.0059" y2="885.0059"/><polygon fill="#181818" points="703.1953,881.0059,693.1953,885.0059,703.1953,889.0059,699.1953,885.0059" style="stroke:#181818;stroke-width:1;"/><text fill="#0000FF" font-family="sans-serif" font-size="13" font-weight="bold" lengthAdjust="spacing" textLength="17.1514" x="699.1953" y="859.6084">11</text><text fill="#000000" font-family="sans-serif" font-size="13" lengthAdjust="spacing" textLength="130.2285" x="720.3467" y="851.9531">Compute confidence</text><text fill="#000000" font-family="sans-serif" font-size="13" lengthAdjust="spacing" textLength="46.9155" x="720.3467" y="867.2637">interval</text></g><g class="message" data-participant-1="Pricer" data-participant-2="Local data"><polygon fill="#181818" points="560.4146,925.627,550.4146,929.627,560.4146,933.627,556.4146,929.627" style="stroke:#181818;stroke-width:1;"/><line style="stroke:#181818;stroke-width:1;" x1="554.4146" x2="681.1953" y1="929.627" y2="929.627"/><text fill="#0000FF" font-family="sans-serif" font-size="13" font-weight="bold" lengthAdjust="spacing" textLength="17.1514" x="566.4146" y="917.2295">12</text><text fill="#000000" font-family="sans-serif" font-size="13" lengthAdjust="spacing" textLength="77.3652" x="587.5659" y="909.5742">Store option</text><text fill="#000000" font-family="sans-serif" font-size="13" lengthAdjust="spacing" textLength="31.1606" x="587.5659" y="924.8848">price</text></g><g class="message" data-participant-1="Pricer" data-participant-2="Pricer"><line style="stroke:#181818;stroke-width:1;" x1="692.1953" x2="734.1953" y1="963.9375" y2="963.9375"/><line style="stroke:#181818;stroke-width:1;" x1="734.1953" x2="734.1953" y1="963.9375" y2="976.9375"/><line style="stroke:#181818;stroke-width:1;" x1="687.1953" x2="734.1953" y1="976.9375" y2="976.9375"/><polygon fill="#181818" points="697.1953,972.9375,687.1953,976.9375,697.1953,980.9375,693.1953,976.9375" style="stroke:#181818;stroke-width:1;"/><text fill="#0000FF" font-family="sans-serif" font-size="13" font-weight="bold" lengthAdjust="spacing" textLength="17.1514" x="699.1953" y="959.1953">13</text><text fill="#000000" font-family="sans-serif" font-size="13" lengthAdjust="spacing" textLength="28.0313" x="720.3467" y="959.1953">Stop</text></g><!--SRC=[ZLJ1Zjem4BtxAopsq1EbfQhQeYtIBknMIBH5JQMgKYuc6S2BuqdjoLRirtTCsCH9bsqF299vyzxpcp4lTaIbdun6fL6MgiAypB0OUVXLWSrWc6krTQeGmk-rBHN_b2lbI6UwPFWjMaheO42kqUGHPgv8hPM7iu0P6WCPQRJ-BEPQPVkjmyhcZ4OdV-mqGLJ_hidK2le1vFZjawMMM5M4jYhMuEJWSiCrcGNQZsjJmVHoFHq8GQ5DhXpU0Sd5b_dxr-CtGkIdmyZ1prjj5SSYhrQBWRnuDtvry-56b6qWSc4rQMMqPvMBsd1SJdHH6KNO55lk9MRAoF3Cp0a1c6isrkbUEPsrl29aKxQAAgGfOWF3QUnd8XDYCg4uzdj5qFMwrDiT9UmDFZauF4jpvVUo2eKDdoErdZ3RIpQvvrV-K73O_VPkS6m4R2vTs34V-Ud7sxFKBVTDpV6tDQZoOu8YXpEiVMVDG4wcGdTgmy5yNGcPDbpH-7hc8i58uHaVBFOumQHLQWI6qyXPonYvIkjL1mBdXK4iJvx2raIKaX4xpFqPwc-LbP_vBi1mffn1dcRJwNd8scvJcrNE0QzVpHGJnKiRrWjTun3or99JTtp9qMdmqPYZfZYWXlUOpJ6VKq1Xxzd9_vmo9XzEwmipaSkm6FyqzdYzUgEDLFaPhFnQ7YNfK79ttTHA7R_bARBKOelz2ph3egnODqExqNdukqsjvb6uUsKQy5CHrwIy007JsR4ushuSzvOnk7xVX1q-Vm00]--></g></svg>